<?xml version="1.0" standalone="no"?>
<!DOCTYPE svg PUBLIC "-//W3C//DTD SVG 20010904//EN"
 "http://www.w3.org/TR/2001/REC-SVG-20010904/DTD/svg10.dtd">
<svg version="1.0" xmlns="http://www.w3.org/2000/svg"
 width="563.000000pt" height="563.000000pt" viewBox="0 0 563.000000 563.000000"
 preserveAspectRatio="xMidYMid meet">
<metadata>
Created by potrace 1.14, written by Peter Selinger 2001-2017
</metadata>
<g transform="translate(0.000000,563.000000) scale(0.100000,-0.100000)"
fill="#000000" stroke="none">
<path d="M2658 5465 c-2 -1 -43 -5 -93 -8 -49 -4 -142 -16 -205 -27 -554 -99
-1023 -343 -1416 -735 -154 -154 -173 -175 -256 -286 -278 -372 -454 -810
-506 -1264 -10 -83 -9 -554 1 -645 30 -277 125 -598 257 -865 302 -617 824
-1096 1448 -1331 285 -107 547 -154 883 -158 449 -5 792 71 1184 264 274 135
451 264 690 504 380 382 606 802 724 1342 47 219 53 289 53 594 -1 320 -23
481 -102 747 -89 298 -194 511 -383 778 -180 254 -469 523 -747 697 -316 197
-703 334 -1068 378 -79 10 -456 22 -464 15z"/>
</g>
</svg>
