<!-- A sprite that contains all SVG files -->
<svg xmlns="http://www.w3.org/2000/svg" xmlns:xlink="http://www.w3.org/1999/xlink">
  <defs>
    <symbol id="star_a" xmlns="http://www.w3.org/2000/svg"><path class="cls-1" d="m14.43,13.59l10.82-1.31-10.8-.89,4.15-5.3-5.45,4.62L12.12,0l-1.69,10.15-4.41-3.63,3.48,4.86L0,12.55l9.91,1.49-3.67,4.7,4.24-3.14,1.55,9.5,1.45-9.65,4.92,3.53-3.98-5.39"/></symbol>
    <symbol id="star_b" xmlns="http://www.w3.org/2000/svg"><path class="cls-1" d="m24.68,17.86c-.52-.29-1.05-.57-1.58-.85-1.06-.56-2.12-1.09-3.19-1.61-1.07-.52-2.15-1.03-3.23-1.52-.86-.39-1.72-.78-2.59-1.15.37-.87.74-1.74,1.1-2.61.45-1.1.89-2.21,1.32-3.32s.84-2.23,1.23-3.36c.2-.56.39-1.13.57-1.7.18-.57.36-1.14.52-1.72-.31.51-.61,1.03-.9,1.55-.29.52-.58,1.05-.86,1.57-.56,1.06-1.1,2.12-1.63,3.19-.53,1.07-1.04,2.15-1.54,3.23-.4.86-.79,1.72-1.17,2.59-.87-.37-1.74-.73-2.62-1.09-1.1-.45-2.21-.88-3.33-1.3-.56-.21-1.12-.42-1.68-.62-.56-.2-1.12-.4-1.69-.59-.56-.19-1.13-.38-1.7-.56-.57-.18-1.14-.36-1.72-.52.51.31,1.04.61,1.56.9.52.29,1.05.57,1.58.85.53.28,1.06.55,1.59.82.53.27,1.07.53,1.6.79,1.07.52,2.15,1.03,3.23,1.52.86.39,1.72.78,2.59,1.15-.37.87-.74,1.74-1.1,2.61-.45,1.1-.89,2.21-1.32,3.32-.21.56-.42,1.11-.63,1.68-.2.56-.41,1.12-.6,1.69-.2.56-.39,1.13-.57,1.7-.18.57-.36,1.14-.52,1.72.31-.51.61-1.03.9-1.56.29-.52.58-1.05.86-1.57.28-.53.56-1.06.83-1.59.27-.53.54-1.06.8-1.6.53-1.07,1.04-2.15,1.54-3.23.4-.86.79-1.72,1.17-2.59.87.37,1.74.73,2.62,1.09,1.1.45,2.21.88,3.33,1.3,1.11.42,2.24.83,3.37,1.21.56.19,1.13.38,1.7.56.57.18,1.14.36,1.72.52-.51-.31-1.04-.6-1.56-.9"/></symbol>
    <symbol id="star_c" xmlns="http://www.w3.org/2000/svg"><path class="cls-1" d="m28.64,25.28l14.81-4.05-13.74-1.59,7.71-12.33-11.07,8.4-1.86-15.71-4.7,16.17-.46,1.59L5.69,7.83l9.89,11.69-15.59,1.02,18.12,3.36-9.16,14.59,11.32-7.68,2.67,12.99,2.95-13.85,11.86,4.6-9.12-9.26"/></symbol>
    <symbol id="star_d" xmlns="http://www.w3.org/2000/svg"><path class="cls-1" d="m40,18.73c-3.29.78-6.61,1.45-9.92,2.07-3.32.62-6.65,1.2-9.98,1.73-3.33.54-6.67,1.03-10.02,1.48-3.35.44-6.7.85-10.08,1.14,3.29-.78,6.61-1.45,9.92-2.07,3.32-.62,6.65-1.2,9.98-1.73,3.33-.54,6.67-1.03,10.02-1.48,3.35-.44,6.7-.85,10.07-1.14m-17.97,25.5c-.76-3.65-1.41-7.32-2.02-10.99-.6-3.67-1.16-7.35-1.68-11.04-.52-3.69-.99-7.38-1.42-11.07-.43-3.7-.81-7.4-1.08-11.12.77,3.65,1.41,7.32,2.02,10.99.6,3.67,1.16,7.35,1.68,11.04.52,3.69.99,7.38,1.42,11.07.42,3.7.81,7.4,1.08,11.12m6.11-13.29c-1.67-1.33-3.27-2.73-4.86-4.15-1.58-1.42-3.14-2.87-4.67-4.34-1.54-1.47-3.05-2.96-4.54-4.48-1.49-1.52-2.95-3.06-4.35-4.67,1.67,1.33,3.27,2.73,4.86,4.15,1.58,1.42,3.14,2.87,4.67,4.34,1.54,1.47,3.05,2.96,4.54,4.48,1.49,1.52,2.95,3.06,4.36,4.67m-15.7,1.76c.91-1.92,1.89-3.8,2.9-5.66,1.01-1.86,2.06-3.7,3.13-5.53,1.07-1.83,2.17-3.64,3.3-5.43,1.13-1.79,2.29-3.56,3.53-5.29-.91,1.92-1.89,3.8-2.9,5.66-1.01,1.86-2.06,3.7-3.13,5.53-1.07,1.83-2.17,3.63-3.3,5.42-1.13,1.79-2.29,3.56-3.53,5.29"/></symbol>
    <symbol id="star_e" xmlns="http://www.w3.org/2000/svg"><path class="cls-1" d="m10.04,0c-.08,7.87,4.29,14.37,9.76,14.53M10.04,0c-.08,7.87-4.57,14.1-10.04,13.94m10.49,14.23c0-7.87-4.43-14.24-9.9-14.24m9.9,14.24c0-7.87,3.84-13.38,9.31-13.38"/></symbol>
  </defs>
</svg>